<svg xmlns="http://www.w3.org/2000/svg" viewBox="0 0 1818 1070"><defs><style>.cls-1{fill:#2c4256;}.cls-2{fill:#1d3242;}.cls-3{fill:#c2e4f9;}</style></defs><title>levelselectui</title><g id="Layer_1" data-name="Layer 1"><rect class="cls-1" x="52" y="84" width="1633" height="933"/></g><g id="Layer_5" data-name="Layer 5"><rect class="cls-2" y="643" width="494" height="170" rx="85" ry="85"/><rect class="cls-2" x="23" y="900" width="682" height="170" rx="85" ry="85"/><rect class="cls-2" x="974" width="759" height="170" rx="85" ry="85"/><rect class="cls-2" x="1208" y="271" width="610" height="170" rx="85" ry="85"/><path class="cls-2" d="M1301.5,85" transform="translate(52 85)"/><rect class="cls-2" x="1398" y="51" width="388" height="388"/><rect class="cls-2" x="23" y="762" width="270" height="255"/><rect class="cls-1" x="1332" y="170" width="134" height="100" rx="50" ry="50"/><rect class="cls-1" x="228" y="813" width="115" height="87" rx="43.5" ry="43.5"/><rect class="cls-2" x="275" y="205" width="385" height="158" rx="79" ry="79"/><rect class="cls-2" x="983" y="696" width="319" height="147" rx="73.5" ry="73.5"/><rect class="cls-2" x="244.14" y="317.14" width="70.71" height="70.71" rx="17.56" ry="17.56" transform="translate(-115.39 385.88) rotate(-45)"/><rect class="cls-3" x="347.3" y="453.16" width="38.89" height="38.18" rx="19.09" ry="19.09" transform="translate(-174.51 482.65) rotate(-45)"/><rect class="cls-3" x="113.14" y="632.14" width="70.71" height="70.71" rx="17.56" ry="17.56" transform="translate(-376.5 385.51) rotate(-45)"/><rect class="cls-3" x="1151.14" y="779.14" width="70.71" height="70.71" rx="17.56" ry="17.56" transform="translate(-176.42 1162.54) rotate(-45)"/><rect class="cls-3" x="94.51" y="33.36" width="78.49" height="77.78" rx="17.56" ry="17.56" transform="translate(40.09 200.74) rotate(-45)"/><rect class="cls-3" x="1295.14" y="118.14" width="70.71" height="70.71" rx="17.56" ry="17.56" transform="translate(333.15 1070.76) rotate(-45)"/><rect class="cls-3" x="1398.14" y="448.14" width="70.71" height="70.71" rx="17.56" ry="17.56" transform="translate(129.98 1240.25) rotate(-45)"/><rect class="cls-2" x="1479.3" y="648.16" width="38.89" height="38.18" rx="19.09" ry="19.09" transform="translate(19.16 1340.21) rotate(-45)"/><rect class="cls-2" x="22.3" y="288.16" width="38.89" height="38.18" rx="19.09" ry="19.09" transform="translate(-153.03 204.51) rotate(-45)"/><rect class="cls-3" x="322.3" y="836.16" width="38.89" height="38.18" rx="19.09" ry="19.09" transform="translate(-452.66 577.15) rotate(-45)"/><rect class="cls-3" x="890.3" y="453.16" width="38.89" height="38.18" rx="19.09" ry="19.09" transform="translate(-15.47 866.61) rotate(-45)"/><rect class="cls-2" x="874.14" y="436.14" width="70.71" height="70.71" rx="17.56" ry="17.56" transform="translate(-15.01 866.21) rotate(-45)"/><rect class="cls-2" x="319.14" y="-34.86" width="70.71" height="70.71" rx="17.56" ry="17.56" transform="translate(155.48 335.82) rotate(-45)"/><rect class="cls-2" x="453.14" y="719.14" width="70.71" height="70.71" rx="17.56" ry="17.56" transform="translate(-338.43 651.41) rotate(-45)"/><rect class="cls-2" x="1257.14" y="540.14" width="70.71" height="70.71" rx="17.56" ry="17.56" transform="translate(23.62 1167.5) rotate(-45)"/><rect class="cls-2" x="28.14" y="457.14" width="70.71" height="70.71" rx="17.56" ry="17.56" transform="translate(-277.65 274.15) rotate(-45)"/><rect class="cls-2" x="1486.14" y="769.14" width="70.71" height="70.71" rx="17.56" ry="17.56" transform="translate(-71.23 1396.5) rotate(-45)"/><rect class="cls-3" x="1197.3" y="248.16" width="38.89" height="38.18" rx="19.09" ry="19.09" transform="translate(219.4 1023.65) rotate(-45)"/><rect class="cls-3" x="1292.3" y="430.16" width="38.89" height="38.18" rx="19.09" ry="19.09" transform="translate(118.53 1144.13) rotate(-45)"/></g></svg>